<svg>
    <symbol id="icon-cart" xmlns="http://www.w3.org/2000/svg" fill="none" viewBox="0 0 16 15"><path fill="#fff" fill-rule="evenodd" d="M15.817 1.479a.579.579 0 0 0-.432-.191H3.837a7.545 7.545 0 0 0-.044-.257L3.74.734a1.84 1.84 0 0 0-.072-.266.815.815 0 0 0-.125-.247.619.619 0 0 0-.192-.156A.566.566 0 0 0 3.077 0H.616a.58.58 0 0 0-.433.191A.633.633 0 0 0 0 .644c0 .174.06.325.183.453a.58.58 0 0 0 .433.19h1.96L4.28 9.57l-.197.382a7.64 7.64 0 0 0-.284.599c-.07.17-.106.303-.106.397 0 .175.061.325.183.453a.58.58 0 0 0 .433.191h9.845a.58.58 0 0 0 .433-.19.634.634 0 0 0 .183-.454.633.633 0 0 0-.183-.453.58.58 0 0 0-.433-.19H5.308c.153-.323.23-.537.23-.645 0-.067-.008-.14-.024-.221a9.505 9.505 0 0 0-.057-.267 2.632 2.632 0 0 1-.044-.216l10.04-1.228a.59.59 0 0 0 .393-.216.652.652 0 0 0 .154-.427V1.932a.634.634 0 0 0-.183-.453zM12.46 13.611c0 .384.131.71.393.982.263.271.58.407.951.407s.688-.136.95-.407a1.36 1.36 0 0 0 .395-.982c0-.383-.132-.71-.394-.982a1.275 1.275 0 0 0-.95-.407c-.372 0-.69.136-.951.407a1.362 1.362 0 0 0-.394.982zm-8.57.982a1.36 1.36 0 0 1-.394-.982c0-.383.131-.71.394-.982.262-.271.58-.407.95-.407.371 0 .688.136.95.407.264.271.395.599.395.982 0 .384-.132.71-.394.982-.263.271-.58.407-.95.407-.372 0-.689-.136-.951-.407z" clip-rule="evenodd"/></symbol>
</svg>
